<svg width="32" height="32" xmlns="http://www.w3.org/2000/svg">
 <title/>
 <desc/>

 <g>
  <title>background</title>
  <rect fill="#000000" id="canvas_background" height="34" width="34" y="-1" x="-1"/>
 </g>
 <g>
  <title>Layer 1</title>
  <path stroke="null" fill="#00ff00" canvas="#000000" canvas-opacity="0" id="one-finger-click" d="m12.713638,0.711101l0,3.738892l0.938498,0l0,-3.738892l-0.938498,0l0,0zm6.008741,2.408651l-2.917405,2.352969l0.590615,0.726411l2.917405,-2.35296l-0.590615,-0.72642l0,0zm1.881622,6.295883l-3.657776,-0.841064l-0.211115,0.910766l3.657776,0.841064l0.211115,-0.910766l0,0zm-14.631105,0.910766l3.657776,-0.841064l-0.211124,-0.910766l-3.657776,0.841064l0.211124,0.910766l0,0zm1.079882,-6.48023l2.917405,2.35296l0.590615,-0.726411l-2.917405,-2.352969l-0.590615,0.72642l0,0zm11.759912,25.841345c3.888037,0 7.039916,-3.351188 7.039916,-7.010423c0,0 0,2.162239 0,0l0,-3.505997l0,-2.100771c0,-0.775222 -0.624852,-1.403655 -1.407747,-1.403655c-0.77748,0 -1.407747,0.627377 -1.407747,1.403655l0,0.465791l-0.938498,0l0,-2.330788c0,-0.777671 -0.624852,-1.408104 -1.407747,-1.408104c-0.77748,0 -1.407747,0.627704 -1.407747,1.408104l0,1.396065l-0.938498,0l0,-2.330788c0,-0.777671 -0.624852,-1.408104 -1.407747,-1.408104c-0.77748,0 -1.407747,0.627704 -1.407747,1.408104l0,3.265511l-0.938498,0l0,-9.809695c0,-0.777054 -0.624852,-1.406983 -1.407747,-1.406983c-0.77748,0 -1.407747,0.623582 -1.407747,1.406983l0,10.557464c-1.931804,-2.056783 -4.475105,-4.319234 -5.5174,-3.275522c-1.020307,1.02169 1.608895,3.837038 5.280317,9.989732c1.654215,2.772202 3.747337,4.688992 7.274634,4.689422l0,0zm7.978414,-7.010423c0,4.387983 -3.571528,7.945146 -7.977231,7.945146c-2.921459,0 -6.004687,-1.357695 -8.126621,-5.208071c-3.062778,-5.557583 -6.97958,-9.202358 -5.114541,-11.059896c1.334215,-1.328849 3.429017,-0.054008 5.263931,1.655245l0,0l0,-8.280132c0,-1.30206 1.050451,-2.344669 2.346244,-2.344669c1.304831,0 2.346244,1.049741 2.346244,2.344669l0,4.664231c0.392133,-0.292624 0.87956,-0.465838 1.407747,-0.465838c1.015943,0 1.8722,0.633247 2.201547,1.521841c0.413662,-0.364664 0.957165,-0.587118 1.552444,-0.587118c1.304831,0 2.346244,1.045235 2.346244,2.334592l0,0.012581c0.392133,-0.292166 0.87956,-0.464464 1.407747,-0.464464c1.304831,0 2.346244,1.046282 2.346244,2.336929l0,5.594953l0,0z"/>
 </g>
</svg>